<?xml version="1.0" standalone="no"?>
<!DOCTYPE svg PUBLIC "-//W3C//DTD SVG 20010904//EN"
 "http://www.w3.org/TR/2001/REC-SVG-20010904/DTD/svg10.dtd">
<svg version="1.0" xmlns="http://www.w3.org/2000/svg"
 width="500.000000pt" height="500.000000pt" viewBox="0 0 500.000000 500.000000"
 preserveAspectRatio="xMidYMid meet">
<metadata>
Created by potrace 1.14, written by Peter Selinger 2001-2017
</metadata>
<g transform="translate(0.000000,500.000000) scale(0.100000,-0.100000)"
fill="#000000" stroke="none">
<path d="M2937 4784 c-1 -1 -48 -5 -105 -9 -57 -3 -113 -8 -125 -11 -12 -2
-33 -6 -47 -8 -14 -3 -43 -8 -65 -11 -173 -25 -409 -91 -610 -172 -104 -42
-370 -171 -445 -215 -164 -97 -369 -237 -457 -311 -197 -165 -341 -303 -433
-414 -30 -36 -59 -71 -65 -77 -47 -52 -177 -238 -242 -346 -205 -342 -334
-768 -337 -1115 -2 -242 24 -420 89 -619 58 -176 89 -210 192 -211 l63 0 46
-75 c26 -41 66 -100 89 -130 59 -78 59 -77 36 -109 -28 -39 -33 -100 -11 -148
20 -46 110 -128 233 -216 296 -210 635 -331 1017 -363 209 -17 433 -7 665 32
266 44 590 154 868 296 101 51 152 80 272 151 11 7 48 31 83 54 35 24 67 43
72 43 4 0 10 4 12 8 2 5 26 24 53 43 51 35 173 131 234 184 506 441 820 948
935 1511 38 183 49 312 43 469 -4 77 -9 158 -13 180 -15 106 -47 238 -85 351
-34 101 -49 133 -77 160 -38 37 -83 50 -140 40 -37 -5 -38 -5 -71 52 -33 55
-132 194 -158 220 -17 17 -17 18 7 50 40 55 30 143 -23 196 -232 236 -667 443
-1033 492 -27 3 -51 7 -54 9 -16 9 -403 27 -413 19z"/>
</g>
</svg>
